<?xml version="1.0" encoding="UTF-8"?>
<svg width="144px" height="66px" viewBox="0 0 144 66" version="1.1" xmlns="http://www.w3.org/2000/svg" xmlns:xlink="http://www.w3.org/1999/xlink">
    <title>Logo Indy</title>
    <g id="Symbols" stroke="none" stroke-width="1" fill="none" fill-rule="evenodd">
        <g id="Component/Logo-/Indy-ex-georges/Bleu" fill="#3865FD" fill-rule="nonzero">
            <g id="Component/Logo-/IEG/simple">
                <path d="M141.059918,17.9697495 C142.30047,17.9697495 143.306137,18.9754158 143.306137,20.2159682 C143.306137,20.5070028 143.249579,20.795264 143.139609,21.0647223 L128.974416,55.7735102 L128.786144,56.1843154 L128.592115,56.5926557 L128.392232,56.9980275 L128.1864,57.3999276 L127.97452,57.7978526 L127.756496,58.191299 L127.645149,58.3861854 L127.417728,58.7719702 L127.183919,59.1520178 L126.984131,59.4639786 C126.894327,59.6016217 126.803173,59.7378944 126.710645,59.8726816 L126.570822,60.073734 L126.313899,60.4297379 L126.182884,60.6047704 L126.050152,60.7777395 L125.779487,61.1172353 L125.501805,61.4477221 L125.357225,61.6123781 C123.146045,64.0878879 119.802021,65.9111527 115.893781,65.7269625 L111.917362,65.7268906 C110.676826,65.7268275 109.671184,64.7211677 109.671144,63.4806313 L109.671144,56.2184923 C109.671144,54.97794 110.67681,53.9722736 111.917362,53.9722736 L113.035193,53.9722736 C114.468176,53.9722736 115.2234,53.409269 115.609774,52.9173564 L115.678389,52.7897485 L115.733306,52.6797664 C115.805406,52.5280127 115.831273,52.4357463 115.810906,52.4029672 L115.776523,52.3423706 L115.732212,52.255276 L115.677973,52.1416834 L102.987761,21.0755499 C102.518639,19.9271189 103.069327,18.6158324 104.217758,18.1467095 C104.48672,18.0368412 104.774442,17.980195 105.064978,17.9799103 L113.184046,17.9712188 C114.091651,17.9703292 114.91061,18.5157249 115.259684,19.3535165 L123.132154,37.9481889 L130.762903,19.3762529 C131.10546,18.5263595 131.929928,17.9697495 132.84626,17.9697495 L141.059918,17.9697495 Z M96.9617733,5.9899165 C98.2023256,5.9899165 99.207992,6.99558286 99.207992,8.23613518 L99.207992,50.9142902 C99.207992,52.1548425 98.2023256,53.1605089 96.9617733,53.1605089 L88.7256381,53.1605089 C87.4850858,53.1605089 86.4794194,52.1548425 86.4794194,50.9142902 L86.4794194,48.9830765 L86.3575073,49.1448766 C85.6492575,50.0888283 84.822341,50.8887476 83.9183056,51.5436497 C82.2231672,52.7924936 79.7739776,53.635674 77.1754986,53.7862102 L76.9586261,53.7971454 C76.9578478,53.7972493 76.9570948,53.797709 76.9563417,53.7981687 L76.9261192,53.7985036 C76.811387,53.8031681 76.6964032,53.8064737 76.5812192,53.8083961 L76.3244944,53.8089778 L76.5653194,53.8061048 L76.0151313,53.8031903 C75.9480826,53.8020713 75.8813139,53.8004836 75.8148253,53.798432 L75.7453013,53.7981687 C66.262707,53.7981687 58.7427023,45.9278976 58.4134538,36.4085446 C58.4055061,36.3264743 58.4016858,36.2406288 58.4016858,36.1516698 C58.4016858,36.0808896 58.4016858,36.0101847 58.4028252,35.939558 L58.4016858,35.8335969 L58.4016858,35.7273281 C58.4016858,32.2385394 59.407741,28.9781963 61.1318711,26.2437967 C64.1143007,21.3088982 69.2935284,17.9697495 75.427007,17.9697495 L76.5812192,17.9703312 C79.3976614,18.0173354 82.0944436,18.8914002 83.9183056,20.2350776 C84.8173448,20.8863603 85.6401153,21.6810619 86.3457541,22.6182136 L86.4951547,22.8212119 L86.4374685,8.24502466 C86.4326706,7.0326762 87.3892266,6.04085554 88.5905768,5.99181666 L88.6836696,5.9899165 L96.9617733,5.9899165 Z M42.3507261,17.9697495 L42.1099011,17.9726225 L42.6600893,17.975537 C48.6303254,18.0751754 52.3806558,21.8911818 53.865835,26.0227761 L53.9382062,26.2296031 L54.0718657,26.6400465 L54.1956451,27.0562147 L54.2539167,27.2663111 L54.3098226,27.4776772 L54.4146767,27.9040036 C54.4703908,28.1421229 54.5219173,28.3822948 54.5694712,28.624187 L54.6378494,28.9882741 L54.7122643,29.4282343 L54.7786086,29.8711214 L54.8088414,30.093528 L54.8636021,30.5399984 L54.9109884,30.9883196 L54.9512787,31.4380612 L54.9847514,31.8887927 L55.011685,32.3400837 L55.0323578,32.7915037 L55.0323578,50.9142902 C55.0323578,52.1548425 54.0266914,53.1605089 52.7861391,53.1605089 L44.5500039,53.1605089 C43.3094516,53.1605089 42.3037852,52.1548425 42.3037852,50.9142902 L42.3037852,35.5651292 L42.3017208,35.3472023 L42.299126,35.2377946 L42.299126,35.2377946 L42.2907637,35.0182713 L42.2781077,34.7980452 C42.2756363,34.7612984 42.2729829,34.7245343 42.2701458,34.6877591 L42.2509068,34.4670212 C42.2401726,34.3566333 42.2277571,34.2462531 42.2136173,34.1360432 L42.1830262,33.9158987 L42.1477612,33.6964978 C41.7025048,31.1057939 40.2595595,28.7320213 37.2518559,28.7320213 C34.1818829,28.7320213 32.1958012,31.3054741 32.1958012,35.1082992 L32.1958012,50.9142902 C32.1958012,52.1548425 31.1901348,53.1605089 29.9495825,53.1605089 L21.7134473,53.1605089 C20.472895,53.1605089 19.4672286,52.1548425 19.4672286,50.9142902 L19.4672286,20.9647077 C19.4672286,19.7241554 20.472895,18.718489 21.7134473,18.718489 L29.9338472,18.718489 C31.1743995,18.718489 32.1800659,19.7241554 32.1800659,20.9647077 L32.1800659,22.8212119 C32.9179558,21.7953225 33.7936586,20.9328805 34.756915,20.2350776 C36.580777,18.8914002 39.2775591,18.0173354 42.0940013,17.9703312 L42.3507261,17.9697495 Z M11.2310934,18.718489 C12.4716458,18.718489 13.4773121,19.7241554 13.4773121,20.9647077 L13.4773121,50.7088396 C13.4773121,52.007578 12.9652302,52.987339 11.2310934,52.987339 L11.1769809,52.9866473 L11.0565087,52.9809688 L10.9203376,52.9692402 C10.8963762,52.9667597 10.8717922,52.9640109 10.8466014,52.9609858 L10.6883006,52.9394547 L10.5161923,52.9109037 L10.3310332,52.874945 C7.52335885,52.2913325 0.748739562,49.1923646 0.748739562,38.0715481 L0.748739562,20.9647077 C0.748739562,19.7241554 1.75440592,18.718489 2.99495825,18.718489 L11.2310934,18.718489 Z M77.4945447,28.0777336 C73.1526115,28.0777336 69.6327793,31.5975658 69.6327793,35.939499 C69.6327793,40.2814321 73.1526115,43.8012644 77.4945447,43.8012644 C81.8364778,43.8012644 85.3563101,40.2814321 85.3563101,35.939499 C85.3563101,31.5975658 81.8364778,28.0777336 77.4945447,28.0777336 Z M7.15462248,0 C11.0647069,0 14.2260517,3.17994096 14.2260517,7.11302584 C14.2260517,11.0461107 11.0647069,14.2260517 7.15462248,14.2260517 C3.2445381,14.2260517 0,11.0461107 0,7.11302584 C0,3.17994096 3.2445381,0 7.15462248,0 Z" id="Logo-Indy"></path>
            </g>
        </g>
    </g>
</svg>